# Blender v2.74 (sub 0) OBJ File: ''
# www.blender.org
mtllib __a.mtl
o Cube
v 1.000000 -1.000000 -1.000000
v 1.000000 -1.000000 1.000000
v -1.000000 -1.000000 1.000000
v -1.000000 -1.000000 -1.000000
v 1.000000 1.000000 -0.999999
v 0.999999 1.000000 1.000001
v -1.000000 1.000000 1.000000
v -1.000000 1.000000 -1.000000
vt 0.250044 0.749957
vt 0.250043 0.500000
vt 0.500000 0.500000
vt 0.500000 0.250043
vt 0.250043 0.250043
vt 0.250043 0.000087
vt 0.500000 0.999913
vt 0.250044 0.999913
vt 0.000087 0.250044
vt 0.749957 0.500000
vt 0.500000 0.749956
vt 0.500000 0.000087
vt 0.000087 0.500000
vt 0.749956 0.250043
vn 0.000000 -1.000000 0.000000
vn 0.000000 1.000000 0.000000
vn 1.000000 0.000000 0.000000
vn -0.000000 0.000000 1.000000
vn -1.000000 -0.000000 -0.000000
vn 0.000000 0.000000 -1.000000
usemtl Material
s off
f 2/1/1 3/2/1 4/3/1
f 8/4/2 7/5/2 6/6/2
f 5/7/3 6/8/3 2/1/3
f 6/9/4 7/5/4 3/2/4
f 3/2/5 7/5/5 8/4/5
f 1/10/6 4/3/6 8/4/6
f 1/11/1 2/1/1 4/3/1
f 5/12/2 8/4/2 6/6/2
f 1/11/3 5/7/3 2/1/3
f 2/13/4 6/9/4 3/2/4
f 4/3/5 3/2/5 8/4/5
f 5/14/6 1/10/6 8/4/6
