# File produced by Open Asset Import Library (http://www.assimp.sf.net)
# (assimp v3.1.29665513)

mtllib KlocekB.obj.mtl

# 8 vertex positions
v  400 200 400
v  400 200 200
v  400 400 200
v  400 400 400
v  200 400 200
v  200 400 400
v  200 200 200
v  200 200 400

# 0 UV coordinates

# 6 vertex normals
vn 1 0 0
vn 0 1 0
vn -1 0 -0
vn 0 -1 0
vn 0 0 1
vn 0 0 -1

# Mesh 'ascii' with 12 faces
g ascii
usemtl DefaultMaterial
f  1//1 2//1 3//1
f  3//1 4//1 1//1
f  4//2 3//2 5//2
f  5//2 6//2 4//2
f  6//3 5//3 7//3
f  7//3 8//3 6//3
f  8//4 7//4 2//4
f  2//4 1//4 8//4
f  8//5 1//5 4//5
f  4//5 6//5 8//5
f  5//6 3//6 2//6
f  2//6 7//6 5//6

